<?xml version="1.0" encoding="UTF-8" standalone="no"?>
<!-- Created with Inkscape (http://www.inkscape.org/) -->

<svg
   xmlns:dc="http://purl.org/dc/elements/1.1/"
   xmlns:cc="http://creativecommons.org/ns#"
   xmlns:rdf="http://www.w3.org/1999/02/22-rdf-syntax-ns#"
   xmlns:svg="http://www.w3.org/2000/svg"
   xmlns="http://www.w3.org/2000/svg"
   xmlns:inkscape="http://www.inkscape.org/namespaces/inkscape"
   version="1.1"
   width="20.512625"
   height="21.629625"
   id="svg2"
   xml:space="preserve"><metadata
     id="metadata8"><rdf:RDF><cc:Work
         rdf:about=""><dc:format>image/svg+xml</dc:format><dc:type
           rdf:resource="http://purl.org/dc/dcmitype/StillImage" /></cc:Work></rdf:RDF></metadata><defs
     id="defs6"><clipPath
       id="clipPath16"><path
         d="m 0,17.304 16.41,0 L 16.41,0 0,0 0,17.304 z"
         inkscape:connector-curvature="0"
         id="path18" /></clipPath></defs><g
     transform="matrix(1.25,0,0,-1.25,0,21.629625)"
     id="g10"><g
       id="g12"><g
         clip-path="url(#clipPath16)"
         id="g14"><g
           transform="translate(9.7094,17.0825)"
           id="g20"><path
             d="m 0,0 c -0.627,0.144 -1.28,0.221 -1.951,0.221 -3.401,0 -6.345,-1.965 -7.758,-4.821 l 0,-3.618 c 0,-2.356 1.927,-4.283 4.283,-4.283 l 0.142,0 c 2.356,0 4.284,1.927 4.284,4.283 l 0,3.518 c 0.107,2.641 0.249,4.244 1,4.7"
             inkscape:connector-curvature="0"
             id="path22"
             style="fill:#009be8;fill-opacity:1;fill-rule:evenodd;stroke:none" /></g><g
           transform="translate(7.7583,0)"
           id="g24"><path
             d="m 0,0 c 4.778,0 8.652,3.873 8.652,8.651 0,3.137 -1.669,5.884 -4.168,7.401 C 3.736,15.559 3.617,14.55 3.617,13.515 l 0,-4.651 c 0,-3.822 -3.128,-6.949 -6.95,-6.949 l -0.142,0 c -0.872,0 -1.707,0.163 -2.478,0.459 C -4.401,0.903 -2.306,0 0,0"
             inkscape:connector-curvature="0"
             id="path26"
             style="fill:#009be8;fill-opacity:1;fill-rule:evenodd;stroke:none" /></g></g></g></g></svg>
